# xmcd CD database file
#
# Track frame offsets:
#	150
#	27556
#	69410
#	101278
#	133544
#	166220
#	199232
#	233704
#	267923
#	296273
#
# Disc length: 4699 seconds
#
# Revision: 0
# Processed by: cddbd v1.5.2PL0 Copyright (c) Steve Scherf et al.
# Submitted via: CDex 1.51
#
DISCID=8612590a
DTITLE=Liza Marklund - Studio 6 CD4
DYEAR=2001
DGENRE=Hörbuch
TTITLE0=Studio 6 CD4-01
TTITLE1=Studio 6 CD4-02
TTITLE2=Studio 6 CD4-03
TTITLE3=Studio 6 CD4-04
TTITLE4=Studio 6 CD4-05
TTITLE5=Studio 6 CD4-06
TTITLE6=Studio 6 CD4-07
TTITLE7=Studio 6 CD4-08
TTITLE8=Studio 6 CD4-09
TTITLE9=Studio 6 CD4-10
EXTD=YEAR: 2001
EXTT0=
EXTT1=
EXTT2=
EXTT3=
EXTT4=
EXTT5=
EXTT6=
EXTT7=
EXTT8=
EXTT9=
PLAYORDER=
